# xmcd
#
# Track frame offsets: 
#        150
#        20899
#        43143
#        64253
#
# Disc length: 1008 seconds
#
# Revision: 0
# Processed by: cddbd v1.5.1PL0 Copyright (c) Steve Scherf et al.
# Submitted via: ExactAudioCopy v0.95a5
#
DISCID=3703ee04
DTITLE=Ride Em Cowboy - Loveheart Candy
DYEAR=2003
DGENRE=Country
TTITLE0=Looking Out That Way
TTITLE1=Loveheart Candy
TTITLE2=County Soul
TTITLE3=Consumebesilentdie
EXTD=
EXTT0=
EXTT1=
EXTT2=
EXTT3=
PLAYORDER=
